<?xml version="1.0" standalone="no"?><!DOCTYPE svg PUBLIC "-//W3C//DTD SVG 1.1//EN" "http://www.w3.org/Graphics/SVG/1.1/DTD/svg11.dtd"><svg t="1544419421975" class="icon" style="" viewBox="0 0 1024 1024" version="1.1" xmlns="http://www.w3.org/2000/svg" p-id="1186" xmlns:xlink="http://www.w3.org/1999/xlink" width="32" height="32"><defs><style type="text/css"></style></defs><path d="M341.761707 5.888L0.001707 199.68v446.208c-0.64 204.928 167.04 371.626667 374.4 372.266667a379.52 379.52 0 0 0 188.330666-49.237334l276.778667-157.269333c109.269333-55.722667 184.021333-168.362667 184.448-298.282667V46.762667L956.11904 7.68l-277.461333 154.922667v485.248a264.405333 264.405333 0 0 1-6.528 61.226666 352.554667 352.554667 0 0 1-24.490667 71.04c-21.802667-1.28-65.962667-13.397333-101.802667-34.56a327.253333 327.253333 0 0 1-58.197333-43.562666 245.418667 245.418667 0 0 1-33.28-40.32 230.058667 230.058667 0 0 1-24.96-46.037334 294.4 294.4 0 0 1-16-50.56c-3.84-17.962667-4.437333-36.48-4.437333-54.4L409.601707 44.842667 341.761707 6.101333V5.888z m157.312 920.874667a320.256 320.256 0 0 1-57.6 17.493333 299.904 299.904 0 0 1-121.813334-0.426667 300.8 300.8 0 0 1-57.6-17.792 316.928 316.928 0 0 1-52.010666-28.117333c-42.24-29.482667-64-55.082667-82.816-82.602667-11.093333-16.64-20.48-33.92-28.16-51.84a312.661333 312.661333 0 0 1-17.749334-56.96c-3.84-19.84-4.437333-41.002667-4.437333-61.397333V238.08l256-154.496V510.72c0 162.389333 120.277333 297.770667 275.2 330.538667-5.76 7.04-10.24 14.122667-16.682667 20.48-14.08 13.738667-28.8 26.624-45.397333 37.418666-16 10.965333-27.52 19.84-45.44 27.477334l-1.493333 0.128z m443.946666-358.741334a276.565333 276.565333 0 0 1-16 50.602667c-18.730667 40.746667-48.981333 75.52-74.24 97.877333-51.882667 46.976-116.266667 61.44-123.648 61.44 15.445333-40.448 25.941333-83.84 26.069334-129.664V201.6L947.372373 85.333333l0.128 427.050667c0 18.389333-0.768 37.504-4.48 55.296v0.341333z" fill="#1296db" p-id="1187"></path></svg>